<svg width="100" height="100" viewBox="0 0 100 100" fill="none" xmlns="http://www.w3.org/2000/svg">
<path d="M84.4558 12.5369C86.1838 10.8917 88.4834 9.98221 90.8693 10.0003C93.2551 10.0183 95.5407 10.9625 97.2436 12.6336C98.9466 14.3048 99.9337 16.5721 99.9968 18.9572C100.06 21.3423 99.1939 23.6586 97.5816 25.4174L48.6357 86.6305C47.794 87.537 46.7782 88.2645 45.649 88.7695C44.5198 89.2744 43.3003 89.5465 42.0636 89.5694C40.8268 89.5923 39.5981 89.3656 38.451 88.9028C37.3038 88.4399 36.2618 87.7506 35.3872 86.8758L2.92827 54.4169C2.02434 53.5746 1.29933 52.5589 0.796475 51.4304C0.293621 50.3018 0.0232279 49.0835 0.00143182 47.8482C-0.0203643 46.6128 0.206883 45.3857 0.669613 44.2401C1.13234 43.0945 1.82108 42.0539 2.69473 41.1802C3.56838 40.3066 4.60905 39.6178 5.75465 39.1551C6.90026 38.6924 8.12734 38.4651 9.36267 38.4869C10.598 38.5087 11.8163 38.7791 12.9449 39.282C14.0734 39.7848 15.0892 40.5098 15.9315 41.4138L41.6189 67.0889L84.2227 12.8068C84.2994 12.7123 84.3813 12.6222 84.468 12.5369H84.4558Z" fill="#0B3B3C"/>
</svg>
