<svg width="40" height="40" viewBox="0 0 40 40" fill="none" xmlns="http://www.w3.org/2000/svg">
<path fill-rule="evenodd" clip-rule="evenodd" d="M10.6995 37.0382C10.0215 37.0382 9.5978 36.5238 9.5978 35.6823C9.5978 31.7058 17.4881 22.6734 25.3593 15.017C24.0285 23.6159 15.2352 37.0382 10.6995 37.0382ZM38.9442 1.5029C37.8611 1.529 35.6391 1.61307 33.6898 1.64103C33.0042 1.65086 32.7303 1.95891 32.8181 2.40112C32.9217 2.92222 33.2651 3.30807 33.7818 3.32171C34.4471 3.33934 35.3382 3.22824 36.4808 3.17205C33.8834 5.17052 30.7408 7.7973 27.4985 10.7198C27.1176 7.77959 25.7545 5.42807 23.0724 5.42807C19.1741 5.42807 15.2758 11.3603 13.5808 14.6654C13.4114 11.9535 12.2249 9.41112 9.68254 9.41112C4.39678 9.41112 0 21.4391 0 23.239C0 23.8543 0.703729 24.3264 1.12746 24.3264C1.63593 24.3264 1.80119 24.0721 1.97068 23.4789C4.17407 16.2755 7.47915 11.2755 9.68254 11.2755C10.7842 11.2755 11.6317 12.5467 11.6317 15.5128C11.6317 17.6952 11.2599 19.0203 11.2599 19.5374C11.2599 20.3454 11.9707 20.767 12.3944 20.767C12.9029 20.767 13.0724 20.5128 13.3266 19.9196C15.869 13.6484 20.0215 7.37722 22.9876 7.37722C24.4482 7.37722 25.4419 9.2429 25.5238 12.5258C16.631 20.7761 7.67136 30.7181 7.67136 35.6089C7.67136 37.6444 8.79373 38.8179 10.6147 38.8179C17.1527 38.8179 27.3851 22.5688 27.6078 12.866C31.2462 9.44256 34.7155 6.45307 37.2122 4.55086C36.8278 5.50468 36.4403 6.43239 36.2432 7.12485C36.0989 7.63146 36.1868 8.18849 36.8094 8.43061C37.2031 8.58375 37.5541 8.3618 37.7084 7.92171C38.6466 5.24468 39.13 4.14663 39.7039 2.61502C40.0792 1.61324 40.0392 1.47654 38.9442 1.5029Z" fill="#0B3B3C"/>
</svg>
