<svg width="24" height="24" viewBox="0 0 24 24" fill="none" xmlns="http://www.w3.org/2000/svg">
<path d="M20.9016 10.3612H12.1796V14.0439H17.122C16.3329 16.499 14.3808 17.3173 12.138 17.3173C11.2696 17.3185 10.4137 17.1132 9.64294 16.7189C8.8722 16.3246 8.20936 15.753 7.71066 15.0525C7.21197 14.3521 6.89213 13.5434 6.7783 12.6952C6.66446 11.847 6.75997 10.9843 7.05674 10.1802C7.35351 9.37611 7.84277 8.65442 8.48302 8.07634C9.12327 7.49827 9.8956 7.08088 10.7345 6.85958C11.5734 6.63828 12.4541 6.61961 13.3019 6.80514C14.1497 6.99068 14.9395 7.37495 15.6044 7.92535L18.3207 5.37695C17.2269 4.38545 15.904 3.67186 14.4669 3.2981C13.0298 2.92434 11.5218 2.9017 10.0738 3.23214C8.6258 3.56258 7.2815 4.23612 6.15754 5.19432C5.03358 6.15253 4.16392 7.36645 3.62401 8.73077C3.08409 10.0951 2.89024 11.5686 3.05926 13.0234C3.22828 14.4783 3.75507 15.8705 4.59393 17.0794C5.43279 18.2882 6.55837 19.2771 7.87302 19.9604C9.18768 20.6436 10.6517 21.0004 12.138 21C17.1764 21 21.7322 17.7265 20.9016 10.3612Z" fill="#7E0707"/>
</svg>
