<svg width="100" height="100" viewBox="0 0 100 100" fill="none" xmlns="http://www.w3.org/2000/svg">
<path d="M63.5346 49.9999L89.7354 23.7991C93.4729 20.0616 93.4729 14.0021 89.7354 10.2646C85.9977 6.52705 79.9385 6.52705 76.2008 10.2646L50 36.4653L23.7992 10.2646C20.0617 6.52705 14.0022 6.52705 10.2647 10.2646C6.52717 14.0021 6.52717 20.0616 10.2647 23.7991L36.4655 49.9999L10.2647 76.2007C6.52717 79.9382 6.52717 85.9978 10.2647 89.7353C12.1334 91.6038 14.5826 92.5384 17.0319 92.5384C19.4811 92.5384 21.9305 91.604 23.799 89.7353L50 63.5345L76.2008 89.7353C78.0695 91.6038 80.5188 92.5384 82.968 92.5384C85.4172 92.5384 87.8664 91.604 89.7352 89.7353C93.4727 85.9978 93.4727 79.9382 89.7352 76.2007L63.5346 49.9999Z" fill="#0B3B3C"/>
</svg>
